<svg width="700" height="2100" xmlns="http://www.w3.org/2000/svg" style="vector-effect: non-scaling-stroke;">
 <!-- Created with Method Draw - http://github.com/duopixel/Method-Draw/ -->
 <defs style="vector-effect: non-scaling-stroke;">
  <linearGradient id="svg_94" x1="0.5" y1="0.95" x2="0.5" y2="1">
   <stop stop-color="#194872" offset="0"/>
   <stop stop-color="#ffffff" stop-opacity="0.99609" offset="1"/>
  </linearGradient>
  <linearGradient id="svg_152" x1="0.5" y1="0.95" x2="0.5" y2="1">
   <stop stop-color="#194872" offset="0"/>
   <stop stop-color="#ffffff" stop-opacity="0.99609" offset="1"/>
  </linearGradient>
 </defs>
 <g>
  <title>background</title>
  <rect fill="#fff" id="canvas_background" height="2102" width="702" y="-1" x="-1"/>
  <g style="vector-effect: non-scaling-stroke;" display="none" overflow="visible" y="0" x="0" height="100%" width="100%" id="canvasGrid">
   <rect fill="url(#gridpattern)" stroke-width="0" y="0" x="0" height="100%" width="100%"/>
  </g>
 </g>
 <g>
  <title>Layer 1</title>
  <!-- Created with SVG-edit - http://svg-edit.googlecode.com/ -->

  <!-- Created with SVG-edit - http://svg-edit.googlecode.com/ -->
  <g transform="rotate(-13.9477, 291.558, 1123.51)" id="svg_25">
   <g transform="matrix(0.984254, 0, 0, 1.37437, -578.08, -1666.31)" id="svg_24">
    <title>Layer 1</title>
    <path id="svg_22" d="m598.916504,1952.612793l648,87.75"/>
    <ellipse transform="rotate(15.1603, 883.549, 2029.89)" stroke-opacity="0.01" ry="180.432767" rx="462.500002" id="svg_21" cy="2029.889989" cx="883.549856" stroke-linecap="null" stroke-linejoin="null" stroke-dasharray="null" stroke-width="5" stroke="#194872" fill="#194872"/>
   </g>
  </g>
  <!-- Created with SVG-edit - http://svg-edit.googlecode.com/ -->
  <g id="svg_36">
   <g transform="matrix(1.11851, 0, 0, 0.679455, 32.2171, -1072.3)" id="svg_35">
    <title>Layer 1</title>
    <rect fill="#194872" stroke="#194872" stroke-width="5" x="-96.936363" y="3158.105326" width="734.00002" height="548.99999" id="svg_33"/>
   </g>
  </g>
  <!-- Created with SVG-edit - http://svg-edit.googlecode.com/ -->

  <!-- Created with SVG-edit - http://svg-edit.googlecode.com/ -->

  <!-- Created with SVG-edit - http://svg-edit.googlecode.com/ -->

  <g transform="rotate(6.51164, 359.822, 1519.9)" id="svg_137">
   <g transform="matrix(1.00256, 0, 0, 2.56037, -153.349, -9491.64)" id="svg_136">
    <title>Layer 1</title>
    <rect transform="translate(0, -10.0432) translate(-108.388, -45.7525) translate(10.29, 11.5645) translate(-298.545, 1574.82) translate(596.228) translate(0, 2552.88) translate(3, 150) translate(-1, 2) translate(12, -193) translate(5, 60) translate(-49, -60) translate(-27.75, -32.25) translate(-21.9375, -85.2188) translate(-47.25, -2.10938)" fill="url(#svg_94)" stroke="url(#svg_94)" stroke-width="5" x="75.21168" y="336.710268" width="727.998296" height="82.302832" id="svg_134"/>
    <rect fill="url(#svg_94)" stroke="url(#svg_94)" stroke-width="5" x="519.796827" y="4424.773815" width="0" height="2" id="svg_133"/>
   </g>
  </g>
  <!-- Created with SVG-edit - http://svg-edit.googlecode.com/ -->
  <g id="svg_146">
   <g transform="matrix(1.02119, 0, 0, 0.28393, -144.5, 310.681)" id="svg_145">
    <title>Layer 1</title>
    <rect fill="#194872" stroke="#194872" stroke-width="5" x="103.248146" y="-1147.347885" width="734.00002" height="548.99999" id="svg_143"/>
   </g>
  </g>
  <!-- Created with SVG-edit - http://svg-edit.googlecode.com/ -->

  <g transform="rotate(-6.65, 363.275, 200.947)" id="svg_161">
   <g transform="matrix(1.07719, 0, 0, 2.96995, -203.575, -1970.26)" id="svg_160">
    <title>Layer 1</title>
    <rect transform="translate(2.84505, -0.0599506) translate(0.0974887, 0.776816) translate(-114.846, -19.7419) translate(-276.154, -1992.79) translate(596.228) translate(0, 2552.88) translate(3, 150) translate(-1, 2) translate(12, -193) translate(5, 60) translate(-49, -60) translate(-27.75, -32.25) translate(-21.9375, -85.2188) translate(-47.25, -2.10938)" fill="url(#svg_152)" stroke="url(#svg_152)" stroke-width="5" x="80.999999" y="309.411343" width="727.998296" height="82.302832" id="svg_158"/>
    <rect fill="url(#svg_152)" stroke="url(#svg_152)" stroke-width="5" x="534.170406" y="855.073069" width="0" height="2" id="svg_157"/>
   </g>
  </g>
 </g>
</svg>