<svg width="640" height="480" xmlns="http://www.w3.org/2000/svg" xmlns:svg="http://www.w3.org/2000/svg">
 <!-- Created with SVG-edit - http://svg-edit.googlecode.com/ -->
 <defs>
  <linearGradient y2="1" x2="0.5" y1="0.95" x1="0.5" id="svg_4">
   <stop offset="0" stop-color="#194872"/>
   <stop offset="1" stop-opacity="0.99609" stop-color="#ffffff"/>
  </linearGradient>
 </defs>
 <g>
  <title>Layer 1</title>
  <rect id="svg_1" height="157" width="437" y="139" x="81" stroke-width="5" stroke="url(#svg_4)" fill="url(#svg_4)" transform="translate(3, 150) translate(-1, 2) translate(12, -193) translate(5, 60) translate(-49, -60) translate(-27.75, -32.25) translate(-21.9375, -85.2188) translate(-47.25, -2.10938) translate(81, 139) scale(1, 1.53473) translate(-81, -139) translate(81, 296) scale(1, 0.312102) translate(-81, -296) translate(81, 296) scale(1, 1.00269) translate(-81, -296) translate(81, 296) scale(1, 0.93551) translate(-81, -296) translate(81, 139) scale(1, 1.12898) translate(-81, -139) translate(81, 139) scale(1, 1.03344) translate(-81, -139) translate(81, 139) scale(1.6659, 1) translate(-81, -139)"/>
  <rect id="svg_5" height="2" width="0" y="314" x="326" stroke-width="5" stroke="url(#svg_4)" fill="url(#svg_4)"/>
 </g>
</svg>